<svg width="210" height="25" viewBox="0 0 210 25" fill="none" xmlns="http://www.w3.org/2000/svg">
<path d="M0.88 24V1.6H5.136L11.344 15.776L17.456 1.6H21.808V24H18.768V5.472L12.784 18.944H9.776L3.76 5.472V24H0.88ZM33.6155 24.384C32.2288 24.384 30.9702 24.032 29.8395 23.328C28.7088 22.624 27.8022 21.632 27.1195 20.352C26.4582 19.0507 26.1275 17.5253 26.1275 15.776C26.1275 14.112 26.4582 12.6187 27.1195 11.296C27.8022 9.97333 28.7302 8.928 29.9035 8.16C31.0982 7.37067 32.4635 6.976 33.9995 6.976C34.9595 6.976 35.8235 7.14667 36.5915 7.488C37.3808 7.808 38.0635 8.21333 38.6395 8.704V7.36H41.2635V19.968C41.2635 20.7787 41.4555 21.312 41.8395 21.568C42.2448 21.8027 42.6822 21.92 43.1515 21.92L42.5435 24.16C40.4955 24.16 39.2582 23.328 38.8315 21.664C38.3408 22.3467 37.6688 22.976 36.8155 23.552C35.9835 24.1067 34.9168 24.384 33.6155 24.384ZM34.2555 21.824C35.0662 21.824 35.8342 21.632 36.5595 21.248C37.2848 20.8427 37.8928 20.3413 38.3835 19.744V10.816C37.8075 10.4107 37.1675 10.0907 36.4635 9.856C35.7808 9.6 35.0555 9.472 34.2875 9.472C33.2635 9.472 32.3568 9.73867 31.5675 10.272C30.7995 10.784 30.1915 11.5093 29.7435 12.448C29.2955 13.3653 29.0715 14.4427 29.0715 15.68C29.0715 16.8747 29.2955 17.9413 29.7435 18.88C30.1915 19.7973 30.8102 20.5227 31.5995 21.056C32.3888 21.568 33.2742 21.824 34.2555 21.824ZM52.8215 24.384C51.2215 24.384 49.9522 23.8613 49.0135 22.816C48.0962 21.7493 47.6375 20.2347 47.6375 18.272V10.464H44.7575V7.968H47.7015L48.3095 2.72H50.5175V7.968H55.1255V10.464H50.5175V18.496C50.5175 19.7333 50.7735 20.5973 51.2855 21.088C51.8188 21.5787 52.4482 21.824 53.1735 21.824C53.7068 21.824 54.2082 21.7387 54.6775 21.568C55.1682 21.3973 55.6162 21.1947 56.0215 20.96L56.8215 23.264C56.3948 23.52 55.8188 23.7653 55.0935 24C54.3682 24.256 53.6108 24.384 52.8215 24.384ZM65.8113 24.384C64.2326 24.384 62.8459 24.0213 61.6513 23.296C60.4779 22.5493 59.5713 21.5253 58.9313 20.224C58.2913 18.9013 57.9713 17.3867 57.9713 15.68C57.9713 14.08 58.2913 12.6187 58.9313 11.296C59.5926 9.97333 60.5313 8.928 61.7473 8.16C62.9633 7.37067 64.3926 6.976 66.0353 6.976C66.9739 6.976 67.7953 7.06133 68.4993 7.232C69.2246 7.40267 69.9179 7.648 70.5793 7.968L69.7153 10.4C69.1179 10.1013 68.5419 9.888 67.9873 9.76C67.4539 9.61067 66.8566 9.536 66.1953 9.536C64.7019 9.536 63.4433 10.08 62.4193 11.168C61.4166 12.2347 60.9153 13.7173 60.9153 15.616C60.9153 16.768 61.1286 17.8133 61.5553 18.752C61.9819 19.6907 62.5686 20.4373 63.3153 20.992C64.0833 21.5467 64.9793 21.824 66.0033 21.824C66.8139 21.824 67.5073 21.7387 68.0833 21.568C68.6593 21.376 69.2779 21.1093 69.9393 20.768L70.8353 23.2C70.1739 23.5627 69.4273 23.8507 68.5953 24.064C67.7846 24.2773 66.8566 24.384 65.8113 24.384ZM74.185 24V0.32H77.065V10.016C77.6623 9.14133 78.4197 8.416 79.337 7.84C80.2543 7.264 81.3317 6.976 82.569 6.976C84.4463 6.976 85.8437 7.54133 86.761 8.672C87.6997 9.80267 88.169 11.296 88.169 13.152V24H85.289V13.472C85.289 12.2773 85.0117 11.3173 84.457 10.592C83.9023 9.86667 83.1237 9.504 82.121 9.504C81.1397 9.504 80.201 9.856 79.305 10.56C78.4303 11.2427 77.6837 12.0533 77.065 12.992V24H74.185ZM107.356 24V4.288H100.476V1.6H117.276V4.288H110.396V24H107.356ZM120.154 24V7.36H122.938V10.976C123.215 10.272 123.588 9.62133 124.058 9.024C124.527 8.40533 125.114 7.91467 125.818 7.552C126.522 7.168 127.343 6.976 128.282 6.976C128.602 6.976 128.922 6.99733 129.242 7.04C129.562 7.06133 129.828 7.104 130.042 7.168L129.178 10.144C128.772 9.97333 128.292 9.888 127.738 9.888C126.948 9.888 126.191 10.112 125.466 10.56C124.762 11.008 124.175 11.7013 123.706 12.64C123.258 13.5787 123.034 14.7733 123.034 16.224V24H120.154ZM138.334 24.384C136.948 24.384 135.689 24.032 134.558 23.328C133.428 22.624 132.521 21.632 131.838 20.352C131.177 19.0507 130.846 17.5253 130.846 15.776C130.846 14.112 131.177 12.6187 131.838 11.296C132.521 9.97333 133.449 8.928 134.622 8.16C135.817 7.37067 137.182 6.976 138.718 6.976C139.678 6.976 140.542 7.14667 141.31 7.488C142.1 7.808 142.782 8.21333 143.358 8.704V7.36H145.982V19.968C145.982 20.7787 146.174 21.312 146.558 21.568C146.964 21.8027 147.401 21.92 147.87 21.92L147.262 24.16C145.214 24.16 143.977 23.328 143.55 21.664C143.06 22.3467 142.388 22.976 141.534 23.552C140.702 24.1067 139.636 24.384 138.334 24.384ZM138.974 21.824C139.785 21.824 140.553 21.632 141.278 21.248C142.004 20.8427 142.612 20.3413 143.102 19.744V10.816C142.526 10.4107 141.886 10.0907 141.182 9.856C140.5 9.6 139.774 9.472 139.006 9.472C137.982 9.472 137.076 9.73867 136.286 10.272C135.518 10.784 134.91 11.5093 134.462 12.448C134.014 13.3653 133.79 14.4427 133.79 15.68C133.79 16.8747 134.014 17.9413 134.462 18.88C134.91 19.7973 135.529 20.5227 136.318 21.056C137.108 21.568 137.993 21.824 138.974 21.824ZM158.124 24.384C156.545 24.384 155.158 24.0213 153.964 23.296C152.79 22.5493 151.884 21.5253 151.244 20.224C150.604 18.9013 150.284 17.3867 150.284 15.68C150.284 14.08 150.604 12.6187 151.244 11.296C151.905 9.97333 152.844 8.928 154.06 8.16C155.276 7.37067 156.705 6.976 158.348 6.976C159.286 6.976 160.108 7.06133 160.812 7.232C161.537 7.40267 162.23 7.648 162.892 7.968L162.028 10.4C161.43 10.1013 160.854 9.888 160.3 9.76C159.766 9.61067 159.169 9.536 158.508 9.536C157.014 9.536 155.756 10.08 154.732 11.168C153.729 12.2347 153.228 13.7173 153.228 15.616C153.228 16.768 153.441 17.8133 153.868 18.752C154.294 19.6907 154.881 20.4373 155.628 20.992C156.396 21.5467 157.292 21.824 158.316 21.824C159.126 21.824 159.82 21.7387 160.396 21.568C160.972 21.376 161.59 21.1093 162.252 20.768L163.148 23.2C162.486 23.5627 161.74 23.8507 160.908 24.064C160.097 24.2773 159.169 24.384 158.124 24.384ZM177.986 24.32L169.378 15.456V24H166.498V0.32H169.378V13.856L176.898 7.04L178.562 8.864L172.13 14.56L179.97 22.4L177.986 24.32ZM189.029 24.384C186.639 24.384 184.741 23.6267 183.333 22.112C181.946 20.576 181.253 18.432 181.253 15.68C181.253 14.016 181.562 12.5333 182.181 11.232C182.821 9.90933 183.706 8.87467 184.837 8.128C185.967 7.36 187.279 6.976 188.773 6.976C190.373 6.976 191.695 7.328 192.741 8.032C193.807 8.71467 194.607 9.64267 195.141 10.816C195.674 11.9893 195.941 13.28 195.941 14.688C195.941 15.4347 195.909 16.16 195.845 16.864H184.197C184.389 18.4213 184.933 19.6373 185.829 20.512C186.725 21.3867 187.909 21.824 189.381 21.824C190.341 21.824 191.205 21.728 191.973 21.536C192.741 21.3227 193.477 21.056 194.181 20.736L194.853 23.2C194.085 23.5413 193.221 23.8187 192.261 24.032C191.301 24.2667 190.223 24.384 189.029 24.384ZM184.165 14.528H193.285C193.285 12.9067 192.879 11.6587 192.069 10.784C191.258 9.90933 190.138 9.472 188.709 9.472C187.471 9.472 186.447 9.90933 185.637 10.784C184.826 11.6373 184.335 12.8853 184.165 14.528ZM199.779 24V7.36H202.563V10.976C202.84 10.272 203.213 9.62133 203.683 9.024C204.152 8.40533 204.739 7.91467 205.443 7.552C206.147 7.168 206.968 6.976 207.907 6.976C208.227 6.976 208.547 6.99733 208.867 7.04C209.187 7.06133 209.453 7.104 209.667 7.168L208.803 10.144C208.397 9.97333 207.917 9.888 207.363 9.888C206.573 9.888 205.816 10.112 205.091 10.56C204.387 11.008 203.8 11.7013 203.331 12.64C202.883 13.5787 202.659 14.7733 202.659 16.224V24H199.779Z" fill="white"/>
</svg>
